<?xml version="1.0" encoding="utf-8"?>
<!-- Generator: Adobe Illustrator 16.0.4, SVG Export Plug-In . SVG Version: 6.00 Build 0)  -->
<!DOCTYPE svg PUBLIC "-//W3C//DTD SVG 1.1//EN" "http://www.w3.org/Graphics/SVG/1.1/DTD/svg11.dtd">
<svg version="1.1" id="Layer_1" xmlns="http://www.w3.org/2000/svg" xmlns:xlink="http://www.w3.org/1999/xlink" x="0px" y="0px"
	 width="274px" height="141px" viewBox="0 0 274 141" enable-background="new 0 0 274 141" xml:space="preserve">
<g>
	<path fill="#ED225D" d="M28.062,40.903v7.998h0.359c0.715-1.113,1.65-2.248,2.805-3.402s2.568-2.188,4.24-3.105
		c1.67-0.912,3.561-1.67,5.67-2.268c2.107-0.596,4.477-0.896,7.104-0.896c4.059,0,7.799,0.777,11.223,2.328
		c3.422,1.555,6.367,3.684,8.836,6.389c2.465,2.707,4.375,5.891,5.73,9.551c1.352,3.662,2.029,7.602,2.029,11.82
		s-0.656,8.178-1.971,11.879c-1.312,3.701-3.184,6.924-5.611,9.67s-5.371,4.938-8.834,6.566c-3.463,1.631-7.385,2.447-11.76,2.447
		c-4.061,0-7.781-0.836-11.164-2.506c-3.385-1.672-5.99-3.939-7.82-6.807H28.66v36.295H14.333V40.903H28.062z M61.492,69.317
		c0-2.229-0.338-4.438-1.014-6.627c-0.678-2.188-1.693-4.158-3.045-5.91c-1.354-1.748-3.064-3.162-5.135-4.238
		c-2.07-1.074-4.496-1.611-7.281-1.611c-2.627,0-4.977,0.557-7.045,1.672c-2.07,1.115-3.842,2.549-5.312,4.297
		c-1.475,1.752-2.588,3.742-3.344,5.971c-0.758,2.229-1.133,4.459-1.133,6.686c0,2.229,0.375,4.438,1.133,6.625
		c0.756,2.191,1.869,4.16,3.344,5.912c1.471,1.75,3.242,3.164,5.312,4.236c2.068,1.076,4.418,1.611,7.045,1.611
		c2.785,0,5.211-0.555,7.281-1.67s3.781-2.547,5.135-4.299c1.352-1.75,2.367-3.74,3.045-5.969
		C61.154,73.774,61.492,71.546,61.492,69.317z M201.141,38.165v63.506c0,3.422-0.279,6.666-0.836,9.73
		c-0.559,3.064-1.611,5.73-3.164,8c-1.551,2.27-3.662,4.078-6.328,5.432c-2.668,1.354-6.148,2.029-10.447,2.029
		c-1.193,0-2.387-0.08-3.582-0.238c-1.193-0.16-2.148-0.32-2.865-0.479l1.195-12.178c0.637,0.16,1.312,0.279,2.029,0.359
		c0.717,0.078,1.352,0.119,1.91,0.119c1.67,0,3.023-0.318,4.059-0.955c1.033-0.639,1.83-1.514,2.389-2.627
		c0.555-1.115,0.914-2.408,1.074-3.881c0.158-1.473,0.238-3.043,0.238-4.715V38.165H201.141z M249.971,56.185
		c-1.275-1.672-3.025-3.123-5.254-4.357s-4.656-1.852-7.283-1.852c-2.309,0-4.416,0.479-6.326,1.434
		c-1.912,0.953-2.865,2.547-2.865,4.775s1.053,3.803,3.162,4.715c2.109,0.916,5.195,1.852,9.254,2.807
		c2.148,0.479,4.316,1.115,6.506,1.91s4.18,1.85,5.971,3.164c1.789,1.312,3.242,2.945,4.357,4.895
		c1.113,1.951,1.672,4.318,1.672,7.104c0,3.504-0.658,6.469-1.971,8.895c-1.312,2.428-3.064,4.398-5.254,5.91
		s-4.736,2.607-7.641,3.283c-2.906,0.676-5.908,1.014-9.014,1.014c-4.459,0-8.795-0.816-13.014-2.447
		c-4.219-1.629-7.721-3.959-10.506-6.982l9.432-8.836c1.592,2.07,3.66,3.781,6.209,5.133c2.547,1.354,5.371,2.029,8.477,2.029
		c1.033,0,2.088-0.117,3.164-0.357c1.074-0.238,2.068-0.615,2.984-1.133c0.914-0.518,1.65-1.213,2.209-2.09
		c0.555-0.877,0.834-1.949,0.834-3.225c0-2.389-1.094-4.098-3.281-5.133c-2.191-1.035-5.475-2.07-9.85-3.104
		c-2.15-0.479-4.24-1.094-6.27-1.852c-2.029-0.756-3.84-1.75-5.432-2.984c-1.594-1.234-2.865-2.764-3.82-4.598
		c-0.955-1.83-1.434-4.098-1.434-6.805c0-3.184,0.656-5.928,1.971-8.236c1.312-2.311,3.045-4.197,5.193-5.674
		c2.148-1.471,4.576-2.566,7.283-3.281c2.705-0.717,5.492-1.076,8.357-1.076c4.137,0,8.178,0.717,12.117,2.148
		c3.939,1.434,7.062,3.625,9.373,6.568L249.971,56.185z M165.367,86.089l8.533-2.576l1.676,5.156l-8.498,2.898l5.275,7.48
		l-4.447,3.225l-5.553-7.348l-5.408,7.154l-4.318-3.289l5.275-7.223l-8.564-3.09l1.678-5.16l8.598,2.771v-8.895h5.754V86.089z
		 M135.895,59.108c-1.473-3.301-3.52-6.088-6.149-8.357c-2.625-2.268-5.711-4-9.252-5.193c-3.543-1.193-7.383-1.791-11.521-1.791
		c-1.512,0-3.203,0.082-5.074,0.238c-1.871,0.162-3.482,0.439-4.834,0.838l0.834-18.268h34.504V13.683H86.289l-1.432,46.201
		c1.271-0.635,2.725-1.232,4.357-1.791c1.631-0.555,3.301-1.053,5.014-1.49c1.711-0.438,3.463-0.775,5.254-1.016
		c1.791-0.238,3.48-0.357,5.074-0.357c2.307,0,4.576,0.258,6.805,0.775c2.227,0.518,4.238,1.434,6.029,2.746
		s3.242,3.045,4.357,5.193c1.113,2.148,1.672,4.855,1.672,8.119c0,2.547-0.418,4.836-1.254,6.865
		c-0.836,2.027-1.971,3.721-3.402,5.072c-1.434,1.355-3.104,2.389-5.016,3.104c-1.91,0.719-3.939,1.076-6.088,1.076
		c-3.82,0-7.125-1.016-9.91-3.045c-2.787-2.029-4.775-4.715-5.969-8.059l-0.16,0.059l-10.367,9.715
		c2.096,3.42,4.799,6.281,8.139,8.553c4.854,3.301,10.824,4.955,17.91,4.955c4.217,0,8.197-0.678,11.938-2.029
		s7.004-3.303,9.791-5.852c2.786-2.545,4.995-5.67,6.627-9.371c1.629-3.701,2.445-7.898,2.445-12.596
		C138.104,66.212,137.367,62.413,135.895,59.108z"/>
	<rect fill="none" width="274" height="141"/>
</g>
</svg>
